<svg xmlns="http://www.w3.org/2000/svg" width="60" height="60" viewBox="0 0 60 60" shape-rendering="crispEdges" role="img" aria-label="Uninstall icon">
<g fill="#1f2933"><rect x="3" y="0" width="54" height="3"/><rect x="0" y="3" width="3" height="54"/><rect x="57" y="3" width="3" height="54"/><rect x="3" y="57" width="54" height="3"/></g>
<g fill="#0b0f14"><rect x="3" y="3" width="54" height="6"/><rect x="3" y="9" width="21" height="3"/><rect x="39" y="9" width="18" height="3"/><rect x="3" y="12" width="12" height="6"/><rect x="48" y="12" width="9" height="6"/><rect x="3" y="18" width="15" height="27"/><rect x="45" y="18" width="12" height="27"/><rect x="21" y="21" width="3" height="24"/><rect x="27" y="21" width="3" height="24"/><rect x="33" y="21" width="3" height="24"/><rect x="39" y="21" width="3" height="24"/><rect x="3" y="45" width="18" height="3"/><rect x="42" y="45" width="15" height="3"/><rect x="3" y="48" width="54" height="9"/></g>
<g fill="#e6edf3"><rect x="24" y="9" width="15" height="3"/><rect x="18" y="18" width="27" height="3"/><rect x="18" y="21" width="3" height="24"/><rect x="42" y="21" width="3" height="24"/><rect x="21" y="45" width="21" height="3"/></g>
<g fill="#f85149"><rect x="15" y="12" width="33" height="6"/></g>
<g fill="#3a4a5a"><rect x="24" y="21" width="3" height="24"/><rect x="30" y="21" width="3" height="24"/><rect x="36" y="21" width="3" height="24"/></g>
</svg>
